<svg width="30" height="30" viewBox="0 0 30 30" fill="none" xmlns="http://www.w3.org/2000/svg">
<rect width="30" height="30" rx="5" fill="#F4F4F5"/>
<path d="M22.2163 23.4731H11.702C11.2692 23.4731 10.9183 23.1118 10.9183 22.6663V17.5563C10.9183 17.1107 11.2692 16.7495 11.702 16.7495H18.298C18.7308 16.7495 19.0817 17.1107 19.0817 17.5563V19.5733C19.0817 20.0189 18.7308 20.3801 18.298 20.3801C17.8653 20.3801 17.5144 20.0189 17.5144 19.5733V18.3631H12.4856V21.8594H21.4327V16.5861L14.9953 9.02536L8.56732 16.4519V22.6663C8.56732 23.1118 8.21644 23.4731 7.78366 23.4731C7.35088 23.4731 7 23.1118 7 22.6663V16.1447C7 15.9469 7.07073 15.7556 7.19866 15.608L14.415 7.27032C14.5645 7.09766 14.7708 6.99439 15.0031 7.00024C15.2278 7.00124 15.4412 7.10129 15.5893 7.27516L22.8057 15.7508C22.931 15.8979 23 16.0871 23 16.2827V22.6663C23 23.1118 22.6491 23.4731 22.2163 23.4731Z" fill="#09090B"/>
</svg>
